<?xml version="1.0" encoding="UTF-8"?>
<svg width="20px" height="26px" viewBox="0 0 20 26" version="1.1" xmlns="http://www.w3.org/2000/svg" xmlns:xlink="http://www.w3.org/1999/xlink">
    <!-- Generator: Sketch 52.1 (67048) - http://www.bohemiancoding.com/sketch -->
    <title>bitcoin</title>
    <desc>Created with Sketch.</desc>
    <g id="Pack_2.0" stroke="none" stroke-width="1" fill="none" fill-rule="evenodd">
        <g id="-g-AlterApp_Overview01" transform="translate(-177.000000, -84.000000)" fill="#FFFFFF" fill-rule="nonzero">
            <g id="Balance" transform="translate(25.000000, 77.000000)">
                <g id="Btc" transform="translate(143.000000, 0.000000)">
                    <g id="bitcoin" transform="translate(9.000000, 7.000000)">
                        <path d="M19.81875,10.775625 C20.21625,8.114375 18.19,6.68375 15.419375,5.729375 L16.318125,2.124375 L14.123125,1.5775 L13.248125,5.0875 C12.671875,4.94375 12.079375,4.808125 11.490625,4.67375 L12.371875,1.140625 L10.17875,0.59375 L9.279375,4.1975 C8.801875,4.08875 8.333125,3.98125 7.878125,3.868125 L7.880625,3.856875 L4.854375,3.10125 L4.270625,5.445 C4.270625,5.445 5.89875,5.818125 5.864375,5.84125 C6.753125,6.063125 6.914375,6.65125 6.886875,7.1175 L5.863125,11.224375 C5.924375,11.24 6.00375,11.2625 6.09125,11.2975 L5.86,11.24 L4.424375,16.993125 C4.315625,17.263125 4.04,17.668125 3.41875,17.514375 C3.440625,17.54625 1.82375,17.11625 1.82375,17.11625 L0.734375,19.62875 L3.590625,20.340625 C4.121875,20.47375 4.6425,20.613125 5.154375,20.744375 L4.24625,24.39125 L6.438125,24.938125 L7.338125,21.330625 C7.93625,21.493125 8.5175,21.643125 9.08625,21.784375 L8.19,25.375 L10.384375,25.921875 L11.2925,22.2825 C15.034375,22.990625 17.84875,22.705 19.031875,19.32125 C19.98625,16.59625 18.985,15.024375 17.01625,13.99875 C18.45,13.666875 19.53,12.72375 19.818125,10.775625 L19.81875,10.775625 Z M14.804375,17.80625 C14.125625,20.53125 9.538125,19.05875 8.05,18.68875 L9.255,13.858125 C10.7425,14.229375 15.511875,14.964375 14.805,17.80625 L14.804375,17.80625 Z M15.4825,10.73625 C14.86375,13.215 11.045,11.955625 9.805625,11.646875 L10.898125,7.265625 C12.1375,7.574375 16.1275,8.150625 15.4825,10.73625 Z" id="Shape"></path>
                    </g>
                </g>
            </g>
        </g>
    </g>
</svg>