<?xml version="1.0" encoding="UTF-8"?>
<svg width="325px" height="38px" viewBox="0 0 325 38" version="1.1" xmlns="http://www.w3.org/2000/svg" xmlns:xlink="http://www.w3.org/1999/xlink">
    <!-- Generator: Sketch 52.1 (67048) - http://www.bohemiancoding.com/sketch -->
    <title>Combined Shape</title>
    <desc>Created with Sketch.</desc>
    <defs>
        <linearGradient x1="50%" y1="0%" x2="50%" y2="100%" id="linearGradient-1">
            <stop stop-color="#0F1732" offset="0%"></stop>
            <stop stop-color="#0F1732" offset="100%"></stop>
        </linearGradient>
    </defs>
    <g id="Pack_2.0" stroke="none" stroke-width="1" fill="none" fill-rule="evenodd">
        <g id="-g-AlterApp_Wallet02" transform="translate(-25.000000, -538.000000)" fill="url(#linearGradient-1)">
            <g id="Balance" transform="translate(25.000000, 77.000000)">
                <path d="M-1.2246468e-16,461 C3.81505849e-16,465.115232 0.961589445,468.820309 2.70095667,471.93142 C4.44032389,475.042531 6.95746889,477.559676 10.06858,479.299043 C13.1796911,481.038411 16.8847683,482 21,482 L134,482 C139.54117,482 143.940435,484.093493 147.197797,488.280486 C147.870302,489.971102 148.806261,491.528318 149.954978,492.90144 C149.970026,492.934219 149.985033,492.967073 150,493 L150,492.955033 C153.118431,496.651787 157.784988,499 163,499 C168.215012,499 172.881569,496.651787 176,492.955033 L176,493 C176.014967,492.967073 176.029974,492.934219 176.045022,492.90144 C177.193739,491.528318 178.129698,489.971102 178.802206,488.280479 C182.059565,484.093493 186.45883,482 192,482 L304,482 C308.115232,482 311.820309,481.038411 314.93142,479.299043 C318.042531,477.559676 320.559676,475.042531 322.299043,471.93142 C324.038411,468.820309 325,465.115232 325,461 L325,499 L0,499 L0,461 Z" id="Combined-Shape"></path>
            </g>
        </g>
    </g>
</svg>