<?xml version="1.0" encoding="UTF-8"?>
<svg width="24px" height="24px" viewBox="0 0 24 24" version="1.1" xmlns="http://www.w3.org/2000/svg" xmlns:xlink="http://www.w3.org/1999/xlink">
    <!-- Generator: Sketch 52.1 (67048) - http://www.bohemiancoding.com/sketch -->
    <title>icon</title>
    <desc>Created with Sketch.</desc>
    <g id="Pack_2.0" stroke="none" stroke-width="1" fill="none" fill-rule="evenodd">
        <g id="-g-AlterApp_SignIn07" transform="translate(-176.000000, -85.000000)" fill="#FFFFFF">
            <g id="Balance" transform="translate(25.000000, 77.000000)">
                <g id="icon" transform="translate(143.000000, 0.000000)">
                    <g transform="translate(8.000000, 8.000000)">
                        <path d="M12,24 C18.627417,24 24,18.627417 24,12 C24,5.372583 18.627417,4.05812251e-16 12,0 C5.372583,-4.05812251e-16 0,5.372583 0,12 C0.00716484761,18.624447 5.37555305,23.9928352 12,24 Z M12,2 C17.5228475,2 22,6.4771525 22,12 C22,17.5228475 17.5228475,22 12,22 C6.4771525,22 2,17.5228475 2,12 C2.00606237,6.47966557 6.47966557,2.00606237 12,2 Z" id="Shape" fill-rule="nonzero"></path>
                        <path d="M8.293,16.707 C8.68349985,17.0973819 9.31650015,17.0973819 9.707,16.707 L17.707,8.707 C17.9669566,8.45592553 18.0712126,8.08412211 17.9796972,7.73449268 C17.8881817,7.38486324 17.6151368,7.11181828 17.2655073,7.02030284 C16.9158779,6.9287874 16.5440745,7.03304342 16.293,7.293 L9,14.586 L7.707,13.293 C7.31462111,12.9140278 6.69091522,12.9194476 6.30518142,13.3051814 C5.91944763,13.6909152 5.91402779,14.3146211 6.293,14.707 L8.293,16.707 Z" id="Path"></path>
                    </g>
                </g>
            </g>
        </g>
    </g>
</svg>