<?xml version="1.0" encoding="UTF-8"?>
<svg width="48px" height="48px" viewBox="0 0 48 48" version="1.1" xmlns="http://www.w3.org/2000/svg" xmlns:xlink="http://www.w3.org/1999/xlink">
    <!-- Generator: Sketch 52.1 (67048) - http://www.bohemiancoding.com/sketch -->
    <title>icon</title>
    <desc>Created with Sketch.</desc>
    <g id="Pack_2.0" stroke="none" stroke-width="1" fill="none" fill-rule="evenodd">
        <g id="-g-AlterApp_SignIn02" transform="translate(-163.000000, -142.000000)">
            <g id="Button" transform="translate(25.000000, 112.000000)">
                <g id="icon" transform="translate(138.000000, 29.000000)">
                    <path d="M8,17 L21,17 C21.5522847,17 22,16.5522847 22,16 C22,15.4477153 21.5522847,15 21,15 L8,15 C6.34314575,15 5,16.3431458 5,18 L5,40 C5,41.6568542 6.34314575,43 8,43 L40,43 C41.6568542,43 43,41.6568542 43,40 L43,25 C42.9998392,19.8160221 39.3803109,15.3357336 34.3121458,14.246087 C29.2439806,13.1564404 24.1028967,15.7532126 21.9721435,20.4790478 C19.8413903,25.204883 21.2993459,30.7769863 25.4716342,33.853614 C29.6439224,36.9302417 35.3980049,36.6762647 39.283,33.244 C39.6972136,32.8781114 39.7363886,32.2457136 39.3705,31.8315 C39.0046114,31.4172864 38.3722136,31.3781114 37.958,31.744 C34.7789763,34.5518757 30.0709749,34.7590606 26.6575859,32.241297 C23.2441969,29.7235334 22.051992,25.1642736 23.7959875,21.297901 C25.539983,17.4315283 29.7467677,15.3075778 33.8933525,16.1998736 C38.0399374,17.0921694 41.0007232,20.7584959 41,25 L41,40 C41,40.5522847 40.5522847,41 40,41 L8,41 C7.44771525,41 7,40.5522847 7,40 L7,18 C7,17.4477153 7.44771525,17 8,17 Z" id="Path" fill="#FFFFFF"></path>
                    <path d="M47,9 L6,9 C5.44771525,9 5,9.44771525 5,10 C5,10.5522847 5.44771525,11 6,11 L46,11 L46,44 C46,45.6568542 44.6568542,47 43,47 L5,47 C3.34314575,47 2,45.6568542 2,44 L2,6 C2,4.34314575 3.34314575,3 5,3 L43,3 C43.8080187,2.95717455 44.5962169,3.25946824 45.1683743,3.83162565 C45.7405318,4.40378306 46.0428255,5.19198133 46,6 C46,6.55228475 46.4477153,7 47,7 C47.5522847,7 48,6.55228475 48,6 C48.0507877,4.65899217 47.5403311,3.35749997 46.5914156,2.40858443 C45.6425,1.4596689 44.3410078,0.949212331 43,1 L5,1 C2.23994685,1.00330612 0.00330611633,3.23994685 -5.55777646e-16,6 L-5.55777646e-16,44 C0.00330611633,46.7600532 2.23994685,48.9966939 5,49 L43,49 C45.7600532,48.9966939 47.9966939,46.7600532 48,44 L48,10 C48,9.44771525 47.5522847,9 47,9 Z" id="Path" fill="#B076FF"></path>
                    <path d="M6,5 C5.44771525,5 5,5.44771525 5,6 C5,6.55228475 5.44771525,7 6,7 L8,7 C8.55228475,7 9,6.55228475 9,6 C9,5.44771525 8.55228475,5 8,5 L6,5 Z" id="Path" fill="#B076FF"></path>
                    <path d="M12,5 C11.4477153,5 11,5.44771525 11,6 C11,6.55228475 11.4477153,7 12,7 L14,7 C14.5522847,7 15,6.55228475 15,6 C15,5.44771525 14.5522847,5 14,5 L12,5 Z" id="Path" fill="#B076FF"></path>
                    <path d="M41,5 C40.4477153,5 40,5.44771525 40,6 C40,6.55228475 40.4477153,7 41,7 L43,7 C43.5522847,7 44,6.55228475 44,6 C44,5.44771525 43.5522847,5 43,5 L41,5 Z" id="Path" fill="#B076FF"></path>
                    <path d="M32,31 C32.5522847,31 33,30.5522847 33,30 L33,26 L37,26 C37.5522847,26 38,25.5522847 38,25 C38,24.4477153 37.5522847,24 37,24 L33,24 L33,20 C33,19.4477153 32.5522847,19 32,19 C31.4477153,19 31,19.4477153 31,20 L31,24 L27,24 C26.4477153,24 26,24.4477153 26,25 C26,25.5522847 26.4477153,26 27,26 L31,26 L31,30 C31,30.5522847 31.4477153,31 32,31 Z" id="Path" fill="#FFFFFF"></path>
                </g>
            </g>
        </g>
    </g>
</svg>