<?xml version="1.0" encoding="UTF-8"?>
<svg width="12px" height="12px" viewBox="0 0 12 12" version="1.1" xmlns="http://www.w3.org/2000/svg" xmlns:xlink="http://www.w3.org/1999/xlink">
    <!-- Generator: Sketch 52.1 (67048) - http://www.bohemiancoding.com/sketch -->
    <title>github-icon-1</title>
    <desc>Created with Sketch.</desc>
    <g id="Pack_2.0" stroke="none" stroke-width="1" fill="none" fill-rule="evenodd" opacity="0.2">
        <g id="-g-AlterApp_SignIn00" transform="translate(-211.000000, -556.000000)" fill="#FFFFFF">
            <g id="Footer" transform="translate(31.000000, 369.000000)">
                <g id="github-icon-1" transform="translate(180.000000, 187.000000)">
                    <path d="M5.99839108,0 C2.68599772,0 0,2.75407511 0,6.15149946 C0,8.86943894 1.71871864,11.1752682 4.10207999,11.9886817 C4.40184665,12.045611 4.51193045,11.8552356 4.51193045,11.6927459 C4.51193045,11.5460806 4.50633217,11.0614579 4.50379178,10.5474539 C2.8349872,10.9195689 2.48286017,9.82165372 2.48286017,9.82165372 C2.21000289,9.11061651 1.81685317,8.92159196 1.81685317,8.92159196 C1.27264402,8.53977974 1.85787585,8.54759546 1.85787585,8.54759546 C2.46023183,8.59101611 2.77740491,9.1815369 2.77740491,9.1815369 C3.31239337,10.1219799 4.18064407,9.85007012 4.52293883,9.69293562 C4.57675758,9.29529899 4.73223919,9.0239682 4.90376292,8.8703556 C3.57146665,8.71476495 2.17086198,8.18730059 2.17086198,5.83023492 C2.17086198,5.15866226 2.40518993,4.60987353 2.78893078,4.17909248 C2.72664404,4.02412901 2.52134246,3.39848575 2.84703056,2.55115595 C2.84703056,2.55115595 3.35073452,2.38581978 4.49701739,3.18172023 C4.97545853,3.0453794 5.4886184,2.97706425 5.99839108,2.97474848 C6.50816376,2.97706425 7.02169999,3.0453794 7.50108202,3.18172023 C8.6460006,2.38581978 9.1489989,2.55115595 9.1489989,2.55115595 C9.47548675,3.39848575 9.27009108,4.02412901 9.20780435,4.17909248 C9.59239199,4.60987353 9.82512043,5.15861401 9.82512043,5.83023492 C9.82512043,8.19289703 8.42188127,8.71317286 7.08619781,8.86543459 C7.30133167,9.0563407 7.49303743,9.43072316 7.49303743,10.0045994 C7.49303743,10.8276618 7.48607487,11.4901162 7.48607487,11.6927459 C7.48607487,11.8564417 7.59404168,12.0482645 7.89813642,11.9878615 C10.2801805,11.1735314 11.9967351,8.86852228 11.9967351,6.15149946 C11.9967351,2.75407511 9.31111376,0 5.99839108,0" id="Path"></path>
                </g>
            </g>
        </g>
    </g>
</svg>