<?xml version="1.0" encoding="UTF-8"?>
<svg width="48px" height="48px" viewBox="0 0 48 48" version="1.1" xmlns="http://www.w3.org/2000/svg" xmlns:xlink="http://www.w3.org/1999/xlink">
    <!-- Generator: Sketch 52.1 (67048) - http://www.bohemiancoding.com/sketch -->
    <title>icon</title>
    <desc>Created with Sketch.</desc>
    <g id="Pack_2.0" stroke="none" stroke-width="1" fill="none" fill-rule="evenodd">
        <g id="-g-AlterApp_SignIn02" transform="translate(-163.000000, -297.000000)">
            <g id="Button" transform="translate(25.000000, 267.000000)">
                <g id="icon" transform="translate(138.000000, 29.000000)">
                    <path d="M8,17 L21,17 C21.5522847,17 22,16.5522847 22,16 C22,15.4477153 21.5522847,15 21,15 L8,15 C6.34314575,15 5,16.3431458 5,18 L5,40 C5,41.6568542 6.34314575,43 8,43 L40,43 C41.6568542,43 43,41.6568542 43,40 L43,38 C43,37.5 42.5,37 42,37 C41.5,37 41,37.5 41,38 L41,40 C41,40.5522847 40.5522847,41 40,41 L8,41 C7.44771525,41 7,40.5522847 7,40 L7,18 C7,17.4477153 7.44771525,17 8,17 Z" id="Path" fill="#FFFFFF"></path>
                    <path d="M47,9 L6,9 C5.44771525,9 5,9.44771525 5,10 C5,10.5522847 5.44771525,11 6,11 L46,11 L46,44 C46,45.6568542 44.6568542,47 43,47 L5,47 C3.34314575,47 2,45.6568542 2,44 L2,6 C2,4.34314575 3.34314575,3 5,3 L43,3 C43.8080187,2.95717455 44.5962169,3.25946824 45.1683743,3.83162565 C45.7405318,4.40378306 46.0428255,5.19198133 46,6 C46,6.55228475 46.4477153,7 47,7 C47.5522847,7 48,6.55228475 48,6 C48.0507877,4.65899217 47.5403311,3.35749997 46.5914156,2.40858443 C45.6425,1.4596689 44.3410078,0.949212331 43,1 L5,1 C2.23994685,1.00330612 0.00330611633,3.23994685 -5.55777646e-16,6 L-5.55777646e-16,44 C0.00330611633,46.7600532 2.23994685,48.9966939 5,49 L43,49 C45.7600532,48.9966939 47.9966939,46.7600532 48,44 L48,10 C48,9.44771525 47.5522847,9 47,9 Z" id="Path" fill="#63CEFF"></path>
                    <path d="M6,5 C5.44771525,5 5,5.44771525 5,6 C5,6.55228475 5.44771525,7 6,7 L8,7 C8.55228475,7 9,6.55228475 9,6 C9,5.44771525 8.55228475,5 8,5 L6,5 Z" id="Path" fill="#63CEFF"></path>
                    <path d="M12,5 C11.4477153,5 11,5.44771525 11,6 C11,6.55228475 11.4477153,7 12,7 L14,7 C14.5522847,7 15,6.55228475 15,6 C15,5.44771525 14.5522847,5 14,5 L12,5 Z" id="Path" fill="#63CEFF"></path>
                    <path d="M41,5 C40.4477153,5 40,5.44771525 40,6 C40,6.55228475 40.4477153,7 41,7 L43,7 C43.5522847,7 44,6.55228475 44,6 C44,5.44771525 43.5522847,5 43,5 L41,5 Z" id="Path" fill="#63CEFF"></path>
                    <rect id="Rectangle" fill="#FFFFFF" fill-rule="nonzero" x="23" y="31" width="18" height="2" rx="1"></rect>
                    <rect id="Rectangle" fill="#FFFFFF" fill-rule="nonzero" x="31" y="17" width="2" height="10" rx="1"></rect>
                    <rect id="Rectangle" fill="#FFFFFF" fill-rule="nonzero" x="23" y="23" width="2" height="10" rx="1"></rect>
                    <rect id="Rectangle" fill="#FFFFFF" fill-rule="nonzero" x="39" y="23" width="2" height="10" rx="1"></rect>
                    <polygon id="Path-2" fill="#FFFFFF" fill-rule="nonzero" points="35.3788307 22.2928932 36.7930443 23.7071068 32.0429688 28.4571823 27.2928932 23.7071068 28.7071068 22.2928932 32.0429687 25.6287552"></polygon>
                </g>
            </g>
        </g>
    </g>
</svg>