<?xml version="1.0" encoding="UTF-8"?>
<svg width="20px" height="21px" viewBox="0 0 20 21" version="1.1" xmlns="http://www.w3.org/2000/svg" xmlns:xlink="http://www.w3.org/1999/xlink">
    <!-- Generator: Sketch 52.1 (67048) - http://www.bohemiancoding.com/sketch -->
    <title>icon</title>
    <desc>Created with Sketch.</desc>
    <g id="Pack_2.0" stroke="none" stroke-width="1" fill="none" fill-rule="evenodd">
        <g id="-g-AlterApp_SignIn01" transform="translate(-178.000000, -86.000000)" fill="#FFFFFF" fill-rule="nonzero">
            <g id="Balance" transform="translate(25.000000, 77.000000)">
                <g id="icon" transform="translate(143.000000, 0.000000)">
                    <g transform="translate(10.000000, 8.000000)" id="Shape">
                        <path d="M16,6 L16,4 C16.0234737,3.19738442 15.7149473,2.4206079 15.1471697,1.85283031 C14.5793921,1.28505273 13.8026156,0.976526312 13,1 L7,1 C6.19738442,0.976526312 5.4206079,1.28505273 4.85283031,1.85283031 C4.28505273,2.4206079 3.97652631,3.19738442 4,4 L4,6 C1.790861,6 0,7.790861 0,10 L0,18 C0,20.209139 1.790861,22 4,22 L16,22 C18.209139,22 20,20.209139 20,18 L20,10 C20,7.790861 18.209139,6 16,6 Z M18,18 C18,19.1045695 17.1045695,20 16,20 L4,20 C2.8954305,20 2,19.1045695 2,18 L2,10 C2,8.8954305 2.8954305,8 4,8 L5,8 C5.55228475,8 6,7.55228475 6,7 L6,4.012 C5.97050804,3.73776142 6.06588589,3.46479587 6.25975329,3.26860206 C6.45362069,3.07240826 6.72542914,2.97378126 7,3 L12.988,3 C13.2621498,2.97088718 13.5348874,3.06638938 13.7309897,3.26016641 C13.9270921,3.45394344 14.0258407,3.72552244 14,4 L14,6 L10,6 C9.44771525,6 9,6.44771525 9,7 C9,7.55228475 9.44771525,8 10,8 L16,8 C17.1045695,8 18,8.8954305 18,10 L18,18 Z"></path>
                        <path d="M7.04461268,12.485822 C6.7973063,13.9241559 7.62345252,15.3311477 9,15.816 L9,17 C9,17.5522847 9.44771525,18 10,18 C10.5522847,18 11,17.5522847 11,17 L11,15.816 C12.3765475,15.3311477 13.2026937,13.9241559 12.9553873,12.485822 C12.7080809,11.0474881 11.4594373,9.9972346 10,10 C8.54056274,9.9972346 7.29191905,11.0474881 7.04461268,12.485822 Z M10,14 C9.44771525,14 9,13.5522847 9,13 C9,12.4477153 9.44771525,12 10,12 C10.5522847,12 11,12.4477153 11,13 C11,13.5522847 10.5522847,14 10,14 Z"></path>
                    </g>
                </g>
            </g>
        </g>
    </g>
</svg>