<?xml version="1.0" encoding="UTF-8"?>
<svg width="111px" height="80px" viewBox="0 0 111 80" version="1.1" xmlns="http://www.w3.org/2000/svg" xmlns:xlink="http://www.w3.org/1999/xlink">
    <!-- Generator: Sketch 52.6 (67491) - http://www.bohemiancoding.com/sketch -->
    <title>Group 5</title>
    <desc>Created with Sketch.</desc>
    <defs>
        <linearGradient x1="50%" y1="0%" x2="50%" y2="98.7581286%" id="linearGradient-1">
            <stop stop-color="#B076FF" offset="0%"></stop>
            <stop stop-color="#63CEFF" offset="100%"></stop>
        </linearGradient>
    </defs>
    <g id="Pack_2.0" stroke="none" stroke-width="1" fill="none" fill-rule="evenodd">
        <g id="-g-AlterApp_Logo01" transform="translate(-325.000000, -294.000000)" fill-rule="nonzero">
            <g id="01" transform="translate(325.000000, 294.000000)">
                <g id="Group-5">
                    <path d="M24.9932432,51 L48.0409836,51 L55.3444729,38.2710615 L55.3733073,38.3183106 L61.0599254,29 C62.4080807,26.790861 65.2918376,25 67.5009766,25 L108.500977,25 C110.710116,25 111.408081,26.790861 110.059925,29 L81.3775746,76 C80.8101027,76.9298812 78.0893489,80 76.8100911,80 L33.9365234,80 C32.6572657,80 29.9365119,76.9298812 29.36904,76 L0.686689126,29 C-0.66146619,26.790861 0.03649899,25 2.24563799,25 L16,25 L11.5249943,30.2886431 C10.9246658,30.9981223 10.8921762,32.0276553 11.4465759,32.7735749 L24.9932432,51 Z M27.9662162,55 L38,68.5 L45.7459016,55 L27.9662162,55 Z" id="Combined-Shape" fill="url(#linearGradient-1)"></path>
                    <path d="M31.75,47 L31.75,47 C30.9857502,47 30.2889645,46.5624874 29.9569341,45.8741317 L11.2053006,6.99879387 C10.7254174,6.00391403 11.1429046,4.80838237 12.1377844,4.32849916 C12.3312868,4.23516274 12.5385636,4.17361325 12.7516464,4.14621689 L43.3679407,0.209836201 C44.3161413,0.0879246936 45.2180352,0.654105619 45.5203507,1.56105222 L45.9902627,2.97078814 C46.2877858,3.86335729 45.9229684,4.84261252 45.1139736,5.32295316 L31.5669423,13.366503 C30.9134269,13.7545278 30.5363209,14.4794364 30.5937344,15.2372947 L32.9055736,45.7535716 C32.9539225,46.3917773 32.4757491,46.9483398 31.8375435,46.9966887 C31.8084145,46.9988954 31.7792125,47 31.75,47 Z" id="Path-4" fill="#FFFFFF"></path>
                    <path d="M38.3088682,43.3245127 L50.0197681,4.5884592 C50.2982353,3.66737546 51.193145,3.0751603 52.1497947,3.1788934 L90.2156037,7.30651124 C91.2307732,7.41658986 92,8.27373585 92,9.29485604 L92,10.6980693 C92,11.7221808 91.2263916,12.5808248 90.207824,12.6872423 L59.5556984,15.8897031 C58.8955074,15.9586783 58.3125521,16.3507091 57.9996591,16.9361216 L43.4554553,44.1478578 C43.1677275,44.6861873 42.6499152,45.0636518 42.0493628,45.1728431 L40.25,45.5 C39.3215888,45.668802 38.4321217,45.0530171 38.2633196,44.1246059 C38.2148583,43.8580686 38.2304706,43.5838281 38.3088682,43.3245127 Z" id="Path-5" fill="#FFFFFF"></path>
                </g>
            </g>
        </g>
    </g>
</svg>