<?xml version="1.0" encoding="UTF-8"?>
<svg width="42px" height="30px" viewBox="0 0 42 30" version="1.1" xmlns="http://www.w3.org/2000/svg" xmlns:xlink="http://www.w3.org/1999/xlink">
    <!-- Generator: Sketch 52.1 (67048) - http://www.bohemiancoding.com/sketch -->
    <title>Group 5</title>
    <desc>Created with Sketch.</desc>
    <defs>
        <linearGradient x1="50%" y1="0%" x2="50%" y2="98.7581286%" id="linearGradient-1">
            <stop stop-color="#B076FF" offset="0%"></stop>
            <stop stop-color="#63CEFF" offset="100%"></stop>
        </linearGradient>
    </defs>
    <g id="Pack_2.0" stroke="none" stroke-width="1" fill="none" fill-rule="evenodd">
        <g id="-g-AlterApp_Cinfirmation2" transform="translate(-35.000000, -35.000000)" fill-rule="nonzero">
            <g id="Import">
                <g id="AlterLogo" transform="translate(35.000000, 35.000000)">
                    <g id="Group-5">
                        <path d="M9.35140449,19.125 L17.9748849,19.125 L20.7075387,14.3516481 L20.7183273,14.3693665 L22.846017,10.875 C23.3504392,10.0465729 24.4294179,9.375 25.2559834,9.375 L40.5964328,9.375 C41.4229983,9.375 41.6841471,10.0465729 41.1797249,10.875 L30.4480139,28.5 C30.2356901,28.8487055 29.2177002,30 28.7390566,30 L12.6975981,30 C12.2189545,30 11.2009646,28.8487055 10.9886408,28.5 L0.256929752,10.875 C-0.247492406,10.0465729 0.0136563637,9.375 0.840221854,9.375 L5.98651685,9.375 L4.95000606,10.6027262 C4.35151884,11.3116223 4.31911298,12.3390311 4.87173592,13.0842348 L9.35140449,19.125 Z M10.463764,20.625 L14.2179775,25.6875 L17.1161632,20.625 L10.463764,20.625 Z" id="Combined-Shape" fill="url(#linearGradient-1)"></path>
                        <path d="M11.8794944,17.625 L11.8794944,17.625 C11.5935875,17.625 11.3329628,17.4611935 11.2089763,17.2035696 L4.94319929,4.18428715 C4.46419148,3.18898554 4.8827303,1.99382161 5.87803191,1.5148138 C6.07091216,1.42198651 6.27744377,1.36072515 6.48974374,1.33336796 L15.9551796,0.113642396 C16.4674348,0.0476326715 16.9546983,0.353653813 17.1176966,0.84375 L17.1176966,0.84375 C17.2815491,1.33641467 17.0803609,1.87671022 16.6341885,2.14222171 L12.4767366,4.61626845 C11.8243218,5.00451217 11.4479796,5.72867657 11.505202,6.48571278 L12.3119396,17.1586338 C12.3299924,17.3974667 12.1510147,17.6057136 11.9121818,17.6237664 C11.9013054,17.6245885 11.8904018,17.625 11.8794944,17.625 Z" id="Path-4" fill="#0D1839"></path>
                        <path d="M14.3329413,16.2486864 L18.4152796,2.71515502 C18.6933613,1.79327479 19.5888742,1.20041493 20.546146,1.30444928 L33.4904597,2.71121082 C34.0207282,2.76883931 34.4224719,3.21660925 34.4224719,3.75 L34.4224719,3.75 C34.4224719,4.28285197 34.0200242,4.72964147 33.4900698,4.78513455 L22.9447699,5.88936372 C22.2841006,5.95854432 21.7008926,6.35123956 21.3883132,6.93738278 L16.5437351,16.0218466 C16.2563329,16.560778 15.7384228,16.9388419 15.1375422,17.048339 L15.0598315,17.0625 C14.7123713,17.1258169 14.3793708,16.8954732 14.3160539,16.5480131 C14.297885,16.4483089 14.3036732,16.3457142 14.3329413,16.2486864 Z" id="Path-5" fill="#0D1839"></path>
                    </g>
                </g>
            </g>
        </g>
    </g>
</svg>