<?xml version="1.0" encoding="UTF-8"?>
<svg width="24px" height="18px" viewBox="0 0 24 18" version="1.1" xmlns="http://www.w3.org/2000/svg" xmlns:xlink="http://www.w3.org/1999/xlink">
    <!-- Generator: Sketch 52.1 (67048) - http://www.bohemiancoding.com/sketch -->
    <title>Group 2</title>
    <desc>Created with Sketch.</desc>
    <g id="Pack_2.0" stroke="none" stroke-width="1" fill="none" fill-rule="evenodd">
        <g id="-g-AlterApp_Menu02" transform="translate(-176.000000, -88.000000)" fill-rule="nonzero">
            <g id="Balance" transform="translate(25.000000, 77.000000)">
                <g id="icon" transform="translate(143.000000, 0.000000)">
                    <g id="Group-2" transform="translate(8.000000, 11.000000)">
                        <circle id="Oval" stroke="#FFFFFF" stroke-width="2" cx="12" cy="9" r="3"></circle>
                        <g id="icon" fill="#FFFFFF">
                            <path d="M17.6568542,14.6568542 L16.2426407,13.2426407 C17.3284271,12.1568542 18,10.6568542 18,9 C18,7.34314575 17.3284271,5.84314575 16.2426407,4.75735931 L17.6568542,3.34314575 C19.1045695,4.790861 20,6.790861 20,9 C20,11.209139 19.1045695,13.209139 17.6568542,14.6568542 Z M6.34314575,14.6568542 C4.8954305,13.209139 4,11.209139 4,9 C4,6.790861 4.8954305,4.790861 6.34314575,3.34314575 L7.75735931,4.75735931 C6.67157288,5.84314575 6,7.34314575 6,9 C6,10.6568542 6.67157288,12.1568542 7.75735931,13.2426407 L6.34314575,14.6568542 Z M20.4852814,17.4852814 L19.0710678,16.0710678 C20.8807119,14.2614237 22,11.7614237 22,9 C22,6.23857625 20.8807119,3.73857625 19.0710678,1.92893219 L20.4852814,0.514718626 C22.6568542,2.6862915 24,5.6862915 24,9 C24,12.3137085 22.6568542,15.3137085 20.4852814,17.4852814 Z M3.51471863,17.4852814 C1.34314575,15.3137085 0,12.3137085 0,9 C0,5.6862915 1.34314575,2.6862915 3.51471863,0.514718626 L4.92893219,1.92893219 C3.11928813,3.73857625 2,6.23857625 2,9 C2,11.7614237 3.11928813,14.2614237 4.92893219,16.0710678 L3.51471863,17.4852814 Z" id="Combined-Shape"></path>
                        </g>
                    </g>
                </g>
            </g>
        </g>
    </g>
</svg>