<?xml version="1.0" encoding="UTF-8"?>
<svg width="20px" height="21px" viewBox="0 0 20 21" version="1.1" xmlns="http://www.w3.org/2000/svg" xmlns:xlink="http://www.w3.org/1999/xlink">
    <!-- Generator: Sketch 52.1 (67048) - http://www.bohemiancoding.com/sketch -->
    <title>Shape</title>
    <desc>Created with Sketch.</desc>
    <g id="Pack_2.0" stroke="none" stroke-width="1" fill="none" fill-rule="evenodd">
        <g id="-g-AlterApp_SignIn05" transform="translate(-178.000000, -87.000000)" fill="#FFFFFF" fill-rule="nonzero">
            <g id="Balance" transform="translate(25.000000, 77.000000)">
                <path d="M170.630655,17.1113573 C170.24013,17.5018816 167.485645,19.6232019 167.095121,19.2326777 L164.9738,17.1113573 L157.274115,24.811043 C157.110066,25.1165132 156.685802,26.114948 156.190827,27.3085442 C157.384423,26.8135695 158.385686,26.386477 158.688328,26.2252566 L164.266694,20.6468912 C164.657218,20.2563669 165.290383,20.2563669 165.680907,20.6468912 C166.071431,21.0374155 166.071431,21.6705805 165.680907,22.0611048 L160.024053,27.717959 C159.860004,27.8820078 159.65565,28.0863617 154.739137,30.0598967 C154.36779,30.2082771 153.943749,30.1211582 153.660981,29.8383902 C153.378213,29.5556221 153.291094,29.1315817 153.439475,28.7602344 C155.41301,23.843721 155.617363,23.6393671 155.781412,23.4753183 L167.802227,11.4545031 C168.583276,10.6734545 169.849606,10.6734545 170.630655,11.4545031 L172.044868,12.8687166 C172.825917,13.6497652 172.825917,14.9160952 172.044868,15.6971437 L170.630655,17.1113573 Z M166.388014,15.6971437 L167.802227,17.1113573 L170.630655,14.2829302 L169.216441,12.8687166 L166.388014,15.6971437 Z" id="Shape"></path>
            </g>
        </g>
    </g>
</svg>