<?xml version="1.0" encoding="UTF-8"?>
<svg width="22px" height="22px" viewBox="0 0 22 22" version="1.1" xmlns="http://www.w3.org/2000/svg" xmlns:xlink="http://www.w3.org/1999/xlink">
    <!-- Generator: Sketch 52.1 (67048) - http://www.bohemiancoding.com/sketch -->
    <title>icon</title>
    <desc>Created with Sketch.</desc>
    <g id="Pack_2.0" stroke="none" stroke-width="1" fill="none" fill-rule="evenodd">
        <g id="-g-AlterApp_SignIn04" transform="translate(-177.000000, -86.000000)" fill="#FFFFFF">
            <g id="Balance" transform="translate(25.000000, 77.000000)">
                <g id="icon" transform="translate(143.000000, 0.000000)">
                    <g transform="translate(9.000000, 9.000000)">
                        <path d="M11,20 C15.9705627,20 20,15.9705627 20,11 C20,6.02943725 15.9705627,2 11,2 C6.02943725,2 2,6.02943725 2,11 C2,15.9705627 6.02943725,20 11,20 Z M11,22 C4.92486775,22 0,17.0751322 0,11 C0,4.92486775 4.92486775,0 11,0 C17.0751322,0 22,4.92486775 22,11 C22,17.0751322 17.0751322,22 11,22 Z" id="Oval" fill-rule="nonzero"></path>
                        <path d="M11,17 C11.5522847,17 12,16.5522847 12,16 L12,12 L16,12 C16.5522847,12 17,11.5522847 17,11 C17,10.4477153 16.5522847,10 16,10 L12,10 L12,6 C12,5.44771525 11.5522847,5 11,5 C10.4477153,5 10,5.44771525 10,6 L10,10 L6,10 C5.44771525,10 5,10.4477153 5,11 C5,11.5522847 5.44771525,12 6,12 L10,12 L10,16 C10,16.5522847 10.4477153,17 11,17 Z" id="Path"></path>
                    </g>
                </g>
            </g>
        </g>
    </g>
</svg>