<?xml version="1.0" encoding="UTF-8"?>
<svg width="14px" height="12px" viewBox="0 0 14 12" version="1.1" xmlns="http://www.w3.org/2000/svg" xmlns:xlink="http://www.w3.org/1999/xlink">
    <!-- Generator: Sketch 52.1 (67048) - http://www.bohemiancoding.com/sketch -->
    <title>telegram</title>
    <desc>Created with Sketch.</desc>
    <g id="Pack_2.0" stroke="none" stroke-width="1" fill="none" fill-rule="evenodd" opacity="0.2">
        <g id="-g-AlterApp_SignIn00" transform="translate(-152.000000, -556.000000)" fill="#FFFFFF" fill-rule="nonzero">
            <g id="Footer" transform="translate(31.000000, 369.000000)">
                <g id="telegram" transform="translate(121.000000, 187.000000)">
                    <path d="M14,0.763384392 C13.8159571,1.65767977 13.6322214,2.55103378 13.4472568,3.44501536 C13.4343523,3.51153839 13.4174535,3.57774762 13.40332,3.64364307 C13.3449424,3.92134532 13.2874866,4.19873378 13.2288018,4.47643603 C13.0484459,5.34656974 12.8674755,6.21733102 12.6861979,7.08715094 C12.6179883,7.3956044 12.5497788,7.70531301 12.4806475,8.01408025 C12.3731099,8.57607429 12.2655723,9.13775455 12.1568057,9.70100374 C12.0382071,10.2642529 11.9193012,10.8300124 11.7997809,11.3945168 C11.5189542,12.0638263 11.1133838,12.1774175 10.5332953,11.7393696 C9.75595217,11.1519588 8.98260326,10.5585859 8.20802536,9.9680372 C8.15978707,9.9344619 8.11185603,9.9008866 8.06392499,9.86699751 L7.7234917,10.2099676 C7.43621271,10.49928 7.15016271,10.7882786 6.86349822,11.0782186 C6.83062244,11.1114801 6.79344516,11.1538415 6.75380988,11.1990269 C6.72953711,11.2247575 6.70710784,11.2517433 6.68252782,11.2777877 C6.65118829,11.3138733 6.61462551,11.3461934 6.57560473,11.3760033 C6.55163921,11.3948306 6.51845618,11.4233852 6.4837369,11.4544502 C6.29508524,11.620444 5.97831022,11.8978325 5.48517356,11.8978325 C5.45598478,11.8978325 5.42648876,11.8968911 5.39699273,11.895636 C5.36688221,11.8968911 5.33646443,11.8987738 5.30789016,11.8987738 C5.11585875,11.8987738 4.4712477,11.8357025 4.232207,11.0201679 C4.12251866,10.64425 4.0017693,10.2601737 3.88562871,9.88833509 C3.83831217,9.73614798 3.79007388,9.58396087 3.74214284,9.42894967 L3.33380724,8.09378237 L3.02317723,7.07616837 C2.99521745,6.98422853 2.9850782,6.89134732 2.98968695,6.80034885 C2.13522398,6.53111887 1.28137551,6.26126132 0.427527035,5.99140377 C0.395573008,5.98136256 0.357781226,5.97445923 0.335659208,5.95280786 C0.213988105,5.83419606 0.0151971871,5.72060485 0.00106367513,5.58787259 C-0.0136843373,5.45639548 0.127650782,5.2492955 0.256081391,5.17053475 C0.546125636,4.99230325 0.867509407,4.86365023 1.18244092,4.73091797 C1.54069473,4.57873087 1.90570803,4.4434883 2.26764884,4.30071483 C3.8794837,3.66654959 5.49039681,3.03269813 7.10100267,2.39853288 C7.88356908,2.08976564 8.66644274,1.78382248 9.44778015,1.47191736 C9.75963917,1.34734358 10.0665822,1.2099045 10.3756759,1.07842739 C10.8826389,0.891723623 11.3902163,0.710668033 11.8928777,0.517060929 C12.1961337,0.401273213 12.4920157,0.266344437 12.7909702,0.140201721 C12.8708553,0.117922784 12.9513549,0.100350664 13.0300109,0.0733649088 C13.5658554,-0.113966438 13.8651171,0.0545376378 13.9784925,0.612452436 C13.9883245,0.661717129 13.9932405,0.713178336 14,0.763384392 Z M6.35868605,8.61184611 C6.31474926,9.19925697 6.27265597,9.78760919 6.23086994,10.37502 L6.21335667,10.6178918 C6.2465397,10.5818062 6.27818648,10.5447793 6.31198401,10.5093212 C6.67515381,10.1425032 7.04016712,9.77505767 7.40456593,9.40792589 C7.05552963,9.14246136 6.70680059,8.87668306 6.35868605,8.61184611 Z M9.22256571,3.43309142 C7.45188247,4.57371026 5.68119922,5.71746698 3.90959423,6.85745824 C3.87364595,6.88036475 3.83431791,6.89825066 3.79437538,6.91676414 C4.02634933,7.67424801 4.25832327,8.43204567 4.48968272,9.19015712 C4.65498336,9.72359646 4.826429,10.2557807 4.98281938,10.7914165 C5.04734194,11.0135783 5.15918103,11.1325039 5.39514923,11.0904563 C5.46059354,10.1839232 5.52327259,9.27801772 5.59025315,8.37117083 C5.5979344,8.26542432 5.61022441,8.15810888 5.62282167,8.05236237 C5.52265809,7.99368404 5.56659488,7.88134799 5.60131416,7.84432103 C5.66245696,7.77999452 5.72359976,7.71441286 5.78474256,7.64914498 C5.80655733,7.62843499 5.82929385,7.6074112 5.85049412,7.5867012 C5.88121914,7.55406727 5.91102242,7.52143333 5.94144019,7.48911318 C6.08799857,7.34979137 6.23394244,7.20795927 6.38050081,7.06800988 C6.46407288,6.98736641 6.54856671,6.90640914 6.63244603,6.82607945 C6.85981122,6.60862447 7.08686916,6.39148328 7.31822861,6.17747996 C7.9063056,5.63148911 8.50636536,5.09804976 9.09567136,4.55425541 C9.84689824,3.86015669 10.5962816,3.16354766 11.3404418,2.46160424 C11.3951323,2.38409864 11.4304661,2.2843141 11.4783971,2.19896381 C11.3450505,2.2171635 11.1886601,2.19457078 11.0826588,2.25826971 C10.4561755,2.63952195 9.83983149,3.03583601 9.22256571,3.43309142 Z" id="Combined-Shape"></path>
                </g>
            </g>
        </g>
    </g>
</svg>