<?xml version="1.0" encoding="UTF-8"?>
<svg width="15px" height="12px" viewBox="0 0 15 12" version="1.1" xmlns="http://www.w3.org/2000/svg" xmlns:xlink="http://www.w3.org/1999/xlink">
    <!-- Generator: Sketch 52.1 (67048) - http://www.bohemiancoding.com/sketch -->
    <title>twitter</title>
    <desc>Created with Sketch.</desc>
    <g id="Pack_2.0" stroke="none" stroke-width="1" fill="none" fill-rule="evenodd" opacity="0.2">
        <g id="-g-AlterApp_SignIn00" transform="translate(-181.000000, -556.000000)" fill="#FFFFFF">
            <g id="Footer" transform="translate(31.000000, 369.000000)">
                <g id="twitter" transform="translate(150.000000, 187.000000)">
                    <path d="M10.0225428,0.00266370699 L10.0225428,0 L10.7258792,0 L10.9828674,0.0506104329 C11.1541975,0.0834672586 11.309743,0.126526082 11.4495041,0.179800222 C11.5892786,0.233074362 11.7245356,0.295231964 11.855275,0.366259711 C11.986028,0.437287458 12.1046078,0.509660377 12.2110144,0.583351831 C12.3165149,0.656164262 12.4111948,0.733411765 12.4950541,0.81509434 C12.5779937,0.897669256 12.707394,0.918978912 12.8832281,0.879023307 C13.0590622,0.839067703 13.248422,0.783569367 13.4513075,0.71254162 C13.654193,0.641513873 13.8548332,0.561602664 14.0532011,0.472807991 C14.2515825,0.384013319 14.3724211,0.32763596 14.4157033,0.303662597 C14.4580794,0.278810211 14.4806267,0.265491676 14.4833318,0.263706992 L14.4860234,0.259711432 L14.4995491,0.253052164 L14.5130748,0.246392897 L14.5266005,0.239733629 L14.5401262,0.233074362 L14.5428314,0.229078801 L14.5468891,0.226415094 L14.5509603,0.223751387 L14.5536519,0.219755827 L14.5671776,0.215760266 L14.5807033,0.213096559 L14.5780117,0.233074362 L14.5739405,0.253052164 L14.5671776,0.273029967 L14.5604148,0.293007769 L14.5536519,0.306326304 L14.5468891,0.319644839 L14.5401262,0.339622642 C14.5356222,0.352941176 14.5311181,0.370694784 14.5266005,0.392896781 C14.5220965,0.415098779 14.4792606,0.503880133 14.3981064,0.659267481 C14.3169522,0.814654828 14.2155095,0.972253052 14.0937782,1.13207547 C13.9720469,1.29189789 13.8629486,1.41264373 13.7664698,1.49433962 C13.6690848,1.57691454 13.6046078,1.63462375 13.5730388,1.66748058 C13.5414833,1.70121643 13.503165,1.73228857 13.4580703,1.76071032 L13.3904418,1.80466149 L13.3769161,1.81132075 L13.3633904,1.81798002 L13.3606988,1.82197558 L13.3566276,1.82463929 L13.3525699,1.827303 L13.3498647,1.83129856 L13.336339,1.83795782 L13.3228133,1.84461709 L13.3201217,1.84861265 L13.3160505,1.85127636 L13.3119928,1.85394007 L13.3092876,1.85793563 L13.306596,1.86193119 L13.3025248,1.86459489 L13.2984671,1.8672586 L13.2957619,1.87125416 L13.3633904,1.87125416 L13.74211,1.79134295 C13.9945942,1.73806881 14.235798,1.67370033 14.4657349,1.5982242 L14.8309288,1.47835738 L14.8715059,1.46503885 L14.8917944,1.45837958 L14.9053201,1.45172031 L14.9188458,1.44506104 L14.9323715,1.43840178 L14.9458972,1.43174251 L14.9729486,1.42774695 L15,1.42508324 L15,1.45172031 L14.9932372,1.45438402 L14.9864743,1.45837958 L14.9837827,1.46237514 L14.9797115,1.46503885 L14.9756537,1.46770255 L14.9729486,1.47169811 L14.970257,1.47569367 L14.9661858,1.47835738 L14.962128,1.48102109 L14.9594229,1.48501665 L14.9567313,1.48901221 L14.9526601,1.49167592 L14.9458972,1.50499445 L14.9391344,1.51831299 L14.9350766,1.52097669 C14.9332777,1.5236404 14.8760234,1.59910322 14.7633003,1.74739179 C14.6505906,1.89655938 14.589725,1.9720222 14.5807033,1.97380688 C14.5716952,1.97647059 14.5590622,1.98978912 14.5428314,2.01376249 C14.5275068,2.03861487 14.4319206,2.13762486 14.2560866,2.31076582 C14.0802525,2.48390677 13.9080433,2.63794895 13.7394184,2.77291898 C13.5699008,2.90876804 13.484229,3.07568923 13.4824301,3.27369589 C13.479725,3.47081021 13.4693508,3.69368257 13.4513075,3.94228635 C13.4332777,4.19090344 13.3994635,4.45948502 13.3498647,4.74805771 C13.3002795,5.03663041 13.2236294,5.36293452 13.1199279,5.72697003 C13.0162399,6.09100555 12.889991,6.44617092 12.7412083,6.79245283 C12.5924256,7.13873474 12.4368801,7.44949612 12.2745717,7.72475028 C12.1122633,8.00000444 11.9634806,8.2330788 11.8282236,8.42397336 C11.6929666,8.61486792 11.5554644,8.79466815 11.4156898,8.96337403 C11.2759288,9.13207991 11.099202,9.32209545 10.8854959,9.53340733 C10.6708837,9.74384018 10.55367,9.85927192 10.5338278,9.87968923 C10.5130929,9.89922752 10.4247295,9.97203996 10.2687106,10.0981132 C10.1136249,10.2250788 9.94679892,10.3520444 9.76825969,10.4790233 C9.59062669,10.6051099 9.42741208,10.7103263 9.2786294,10.7946726 C9.12984671,10.8790189 8.95041479,10.9753518 8.74030658,11.0836848 C8.53111812,11.1928968 8.30477908,11.2941176 8.0613165,11.3873474 C7.81785392,11.4805771 7.56086564,11.5671476 7.29035167,11.6470588 C7.01983769,11.72697 6.75834536,11.7891276 6.50586114,11.8335183 C6.25339044,11.877909 5.96709197,11.9156537 5.64697926,11.9467259 L5.16681695,11.9933407 L5.16681695,12 L4.28764653,12 L4.28764653,11.9933407 L4.17267809,11.9866815 C4.09604148,11.9822464 4.03291704,11.977798 3.9833183,11.9733629 C3.93373309,11.9689279 3.74661858,11.9445017 3.4220018,11.900111 C3.09738503,11.8557203 2.84265555,11.8113163 2.65779982,11.7669256 C2.47295762,11.722535 2.19792606,11.6381754 1.83273219,11.5138735 C1.46753832,11.3895716 1.15509468,11.2639245 0.895401262,11.1369589 C0.636614067,11.0108724 0.474305681,10.9309612 0.408476105,10.8972253 C0.34355275,10.8643685 0.270513977,10.8235339 0.189359784,10.7746948 L0.0676284941,10.7014428 L0.0649368801,10.6974473 L0.0608656447,10.6947836 L0.0568079351,10.6921199 L0.0541027953,10.6881243 L0.0405770965,10.681465 L0.0270513977,10.6748058 L0.0243597836,10.6708102 L0.0202885482,10.6681465 L0.0162308386,10.6654828 L0.0135256988,10.6614872 L0.0108340848,10.6574917 L0.00676284941,10.654828 L0,10.654828 L0,10.6281909 L0.0135256988,10.6308546 L0.0270513977,10.6348502 L0.0879170424,10.6415094 C0.128494139,10.6459445 0.238958521,10.6526038 0.419296664,10.6614872 C0.599648332,10.6703707 0.791253381,10.6703707 0.994138864,10.6614872 C1.19702435,10.6526038 1.40442741,10.632626 1.61632101,10.6015538 C1.82822813,10.5704817 2.07845356,10.5172075 2.36699729,10.4417314 C2.65555455,10.3662553 2.92065825,10.2765816 3.16232191,10.172697 C3.40307935,10.0679334 3.57439585,9.98979356 3.67629847,9.93829079 C3.77728133,9.88768036 3.9314743,9.79355827 4.13886384,9.65593785 L4.44995491,9.44950055 L4.45266005,9.44550499 L4.45671776,9.44284129 L4.460789,9.44017758 L4.46348061,9.43618202 L4.46618575,9.43218646 L4.47024346,9.42952275 L4.4743147,9.42685905 L4.47700631,9.42286349 L4.49053201,9.41886792 L4.50405771,9.41620422 L4.50676285,9.40288568 L4.51082056,9.38956715 L4.51489179,9.38690344 L4.51758341,9.38290788 L4.40937782,9.37624861 C4.33724527,9.37181354 4.26735798,9.36736515 4.19972949,9.36293008 C4.13210099,9.35849501 4.02615419,9.3385172 3.88187556,9.30299667 C3.73761046,9.26747614 3.58206492,9.214202 3.41523895,9.14317425 C3.24842651,9.0721465 3.08611812,8.9877869 2.9283138,8.89012209 C2.77052299,8.79245727 2.65644725,8.71120089 2.58611362,8.6463929 C2.5166862,8.58245061 2.42651037,8.49189789 2.31559964,8.37469478 C2.20559513,8.25661265 2.11000902,8.13540067 2.02885482,8.01109878 C1.94770063,7.88679689 1.8701578,7.74338291 1.79622633,7.5809101 L1.6839495,7.33851276 L1.67718665,7.31853496 L1.67042381,7.29855716 L1.6663661,7.28523862 L1.66366096,7.27192009 L1.6839495,7.2745838 L1.70423805,7.27857936 L1.85302074,7.29855716 C1.95221821,7.31187569 2.10776375,7.31631077 2.31965735,7.31187569 C2.53156447,7.30744062 2.67808837,7.29855716 2.75924256,7.28523862 C2.84039675,7.27192009 2.88999549,7.26303663 2.90802525,7.25860155 L2.93507665,7.25194229 L2.96889089,7.24528302 L3.00270514,7.23862375 L3.00541028,7.23462819 L3.00946799,7.23196448 L3.01353922,7.22930078 L3.01623084,7.22530522 L2.98917944,7.21864595 L2.96212804,7.21198668 L2.93507665,7.20532741 L2.90802525,7.19866815 L2.88097385,7.19200888 C2.86294409,7.18757381 2.83138864,7.17869034 2.78629396,7.16537181 C2.7412128,7.15205327 2.61948151,7.10321421 2.42110009,7.01886792 C2.22273219,6.93452164 2.06492786,6.85238624 1.94770063,6.77247503 C1.83018281,6.69233218 1.71812985,6.60468568 1.6122633,6.51009989 C1.50676285,6.41420644 1.39090171,6.29078357 1.26465284,6.13984462 C1.13841749,5.98890566 1.02570784,5.81354051 0.92651037,5.61376249 C0.82732642,5.41398446 0.752935077,5.2230899 0.703336339,5.04106548 C0.653937048,4.86011178 0.621345765,4.67511076 0.605964833,4.48834628 L0.58160505,4.20865705 L0.595130748,4.21132075 L0.608656447,4.21531632 L0.622182146,4.22197558 L0.635707845,4.22863485 L0.649233544,4.23529412 L0.662759243,4.24195339 L0.872407574,4.33518313 C1.01218215,4.39734073 1.18575744,4.45061487 1.39314698,4.49500555 C1.60055005,4.53939623 1.7245266,4.56382242 1.7651037,4.56825749 L1.82596934,4.57491676 L1.94770063,4.57491676 L1.94500902,4.5709212 L1.94093778,4.56825749 L1.93688007,4.56559378 L1.93417493,4.56159822 L1.93148332,4.55760266 L1.92741208,4.55493896 L1.92335437,4.55227525 L1.92064923,4.54827969 L1.90712353,4.54162042 L1.89359784,4.53496115 L1.89090622,4.53096559 L1.88683499,4.52830189 L1.88277728,4.52563818 L1.88007214,4.52164262 L1.86654644,4.51498335 L1.85302074,4.50832408 L1.85032913,4.50432852 C1.84762399,4.50254384 1.80884581,4.47413541 1.73399459,4.4190899 C1.66004959,4.36315205 1.58250676,4.29079245 1.50135257,4.20199778 C1.42019838,4.11320311 1.33904418,4.01997336 1.25788999,3.92230855 C1.17658638,3.82441995 1.10417109,3.71968903 1.04147881,3.60932297 C0.978367899,3.49833962 0.911632101,3.35714983 0.841298467,3.18579356 C0.771871055,3.01531632 0.71912083,2.84350721 0.683047791,2.67036626 C0.646988278,2.49722531 0.626699729,2.32630855 0.622182146,2.15760266 C0.617678088,1.98889678 0.622182146,1.84461709 0.635707845,1.72475028 C0.649233544,1.60488346 0.676284941,1.46947392 0.716862038,1.31853496 C0.757439134,1.167596 0.816059513,1.00777358 0.892696123,0.839067703 L1.00766456,0.586015538 L1.01442741,0.566037736 L1.02119026,0.546059933 L1.0252615,0.543396226 L1.02795311,0.539400666 L1.03065825,0.535405105 L1.03471596,0.532741398 L1.0387872,0.535405105 L1.04147881,0.539400666 L1.04418395,0.543396226 L1.04824166,0.546059933 L1.05231289,0.54872364 L1.05500451,0.552719201 L1.05770965,0.556714761 L1.06176736,0.559378468 L1.06853021,0.572697003 L1.07529306,0.586015538 L1.07936429,0.588679245 L1.08205591,0.592674806 L1.26465284,0.79245283 C1.38638413,0.92563818 1.53066276,1.07436626 1.6974752,1.23862375 C1.86430117,1.40288124 1.95672227,1.48811987 1.97475203,1.49433962 C1.99279531,1.5014384 2.01532913,1.52185572 2.04238052,1.55560488 C2.06943192,1.58846171 2.15960775,1.66704107 2.3128945,1.79134295 C2.46619477,1.91564484 2.66682146,2.05993785 2.9147881,2.22419534 C3.16276826,2.38845283 3.43778629,2.55049945 3.73985573,2.71032186 C4.04193868,2.87014428 4.36655546,3.01442397 4.71370604,3.14317425 C5.06087015,3.27192453 5.30433273,3.35627081 5.44409378,3.39622642 C5.58386835,3.43618202 5.82281335,3.48723196 6.16095582,3.54938957 C6.49909829,3.61154717 6.7538413,3.65150277 6.9251578,3.66925638 C7.09648783,3.68700999 7.21371506,3.69722531 7.27682597,3.69988901 L7.37150586,3.70255272 L7.36881425,3.68257492 L7.36474301,3.66259711 L7.33769161,3.49611543 C7.31966186,3.38513208 7.31064022,3.22974473 7.31064022,3.0299667 C7.31064022,2.83018868 7.32642471,2.64595339 7.35798016,2.4772475 C7.38954914,2.30854162 7.43688909,2.13762486 7.5,1.96448391 C7.56312444,1.79134295 7.6248963,1.65237736 7.68530207,1.54761376 C7.74662759,1.44372919 7.82687556,1.32519423 7.92605951,1.19200888 C8.02525699,1.05882353 8.15375113,0.921203108 8.31154193,0.779134295 C8.46934626,0.637065483 8.6496844,0.510539401 8.85256988,0.399556049 C9.05545537,0.288572697 9.24256988,0.204213097 9.41388638,0.146503885 C9.58521641,0.0887946726 9.72949504,0.0510499445 9.84670875,0.0332963374 C9.96393598,0.0155427303 10.0225428,0.00532741398 10.0225428,0.00266370699 Z" id="Path"></path>
                </g>
            </g>
        </g>
    </g>
</svg>